<svg width="30" height="30" viewBox="0 0 30 30" fill="none" xmlns="http://www.w3.org/2000/svg">
<path fill-rule="evenodd" clip-rule="evenodd" d="M6.86634 24.1906C9.03177 26.1084 11.8799 27.2727 15 27.2727C18.1201 27.2727 20.9682 26.1084 23.1337 24.1906C22.7345 22.7555 19.8673 21.8182 15 21.8182C10.1327 21.8182 7.26546 22.7555 6.86634 24.1906ZM4.90978 21.9882C6.44448 19.961 10.0508 19.0909 15 19.0909C19.9492 19.0909 23.5555 19.961 25.0902 21.9882C26.4663 20.005 27.2727 17.5967 27.2727 15C27.2727 8.22196 21.778 2.72727 15 2.72727C8.22196 2.72727 2.72727 8.22196 2.72727 15C2.72727 17.5967 3.5337 20.005 4.90978 21.9882ZM15 30C6.71573 30 0 23.2843 0 15C0 6.71573 6.71573 0 15 0C23.2843 0 30 6.71573 30 15C30 23.2843 23.2843 30 15 30ZM9.54545 12.2727C9.54545 9.2124 11.6988 6.81818 15 6.81818C18.2921 6.81818 20.4545 9.43852 20.4545 12.5455C20.4545 17.0177 18.0247 19.0909 15 19.0909C11.9466 19.0909 9.54545 16.9464 9.54545 12.2727ZM12.2727 12.2727C12.2727 15.3672 13.3885 16.3636 15 16.3636C16.606 16.3636 17.7273 15.4069 17.7273 12.5455C17.7273 10.8415 16.6577 9.54545 15 9.54545C13.2733 9.54545 12.2727 10.6579 12.2727 12.2727Z" fill="#05203C"/>
</svg>
