<svg width="20" height="20" viewBox="0 0 20 20" fill="none" xmlns="http://www.w3.org/2000/svg">
<path fill-rule="evenodd" clip-rule="evenodd" d="M18 6.15385V3.26923H16V4.23077H14V3.26923H6V4.23077H4V3.26923H2V6.15385H18ZM18 8.07692H2V17.6923H18V8.07692ZM16 1.34615H18C19.1046 1.34615 20 2.20714 20 3.26923V17.6923C20 18.7544 19.1046 19.6154 18 19.6154H2C0.89543 19.6154 0 18.7544 0 17.6923V3.26923C0 2.20714 0.89543 1.34615 2 1.34615H4V0.384615H6V1.34615H14V0.384615H16V1.34615ZM9 13.4479L13.2929 9.32009L14.7071 10.6799L9 16.1675L5.29289 12.603L6.70711 11.2432L9 13.4479Z" fill="black"/>
</svg>
