<svg width="20" height="22" viewBox="0 0 20 22" fill="none" xmlns="http://www.w3.org/2000/svg">
<path d="M18.3333 1.66667H15.8333V0.833333C15.8333 0.61232 15.7455 0.400358 15.5893 0.244078C15.433 0.0877973 15.221 0 15 0C14.779 0 14.567 0.0877973 14.4107 0.244078C14.2545 0.400358 14.1667 0.61232 14.1667 0.833333V1.66667H5.83333V0.833333C5.83333 0.61232 5.74554 0.400358 5.58926 0.244078C5.43297 0.0877973 5.22101 0 5 0C4.77899 0 4.56702 0.0877973 4.41074 0.244078C4.25446 0.400358 4.16667 0.61232 4.16667 0.833333V1.66667H1.66667C1.22479 1.66717 0.801165 1.84293 0.488714 2.15538C0.176262 2.46783 0.000505352 2.89146 0 3.33333V20C0.000505352 20.4419 0.176262 20.8655 0.488714 21.178C0.801165 21.4904 1.22479 21.6662 1.66667 21.6667H18.3333C18.7752 21.6662 19.1988 21.4904 19.5113 21.178C19.8237 20.8655 19.9995 20.4419 20 20V3.33333C19.9995 2.89146 19.8237 2.46783 19.5113 2.15538C19.1988 1.84293 18.7752 1.66717 18.3333 1.66667ZM1.66667 3.33333H4.16667V4.16667C4.16667 4.38768 4.25446 4.59964 4.41074 4.75592C4.56702 4.9122 4.77899 5 5 5C5.22101 5 5.43297 4.9122 5.58926 4.75592C5.74554 4.59964 5.83333 4.38768 5.83333 4.16667V3.33333H14.1667V4.16667C14.1667 4.38768 14.2545 4.59964 14.4107 4.75592C14.567 4.9122 14.779 5 15 5C15.221 5 15.433 4.9122 15.5893 4.75592C15.7455 4.59964 15.8333 4.38768 15.8333 4.16667V3.33333H18.3333L18.3335 6.66667H1.66667V3.33333ZM18.3333 20H1.66667V8.33333H18.3336L18.3344 20H18.3333ZM10 15.4164C10 15.9107 9.85346 16.3939 9.57888 16.805C9.30431 17.216 8.91404 17.5365 8.4574 17.7258C8.00075 17.9151 7.49824 17.9648 7.01336 17.8685C6.52849 17.7723 6.08303 17.5345 5.73329 17.1852C5.57691 17.029 5.48899 16.8171 5.48887 16.596C5.48874 16.375 5.57641 16.163 5.7326 16.0066C5.88879 15.8503 6.1007 15.7624 6.32171 15.7622C6.54273 15.7621 6.75474 15.8498 6.91111 16.006C7.00806 16.1028 7.12739 16.1742 7.25853 16.2139C7.38967 16.2536 7.52858 16.2604 7.66295 16.2336C7.79733 16.2068 7.92302 16.1473 8.02891 16.0603C8.13479 15.9734 8.2176 15.8616 8.27 15.735C8.32239 15.6084 8.34276 15.4708 8.3293 15.3345C8.31584 15.1981 8.26896 15.0672 8.19282 14.9533C8.11668 14.8394 8.01362 14.746 7.89277 14.6814C7.77193 14.6168 7.63702 14.583 7.5 14.583C7.34303 14.583 7.18925 14.5387 7.05637 14.4551C6.92349 14.3716 6.81691 14.2522 6.74891 14.1107C6.68091 13.9692 6.65425 13.8114 6.67201 13.6555C6.68976 13.4995 6.7512 13.3517 6.84926 13.2292L7.4328 12.4997H6.25C6.02899 12.4997 5.81702 12.4119 5.66074 12.2556C5.50446 12.0993 5.41667 11.8874 5.41667 11.6664C5.41667 11.4453 5.50446 11.2334 5.66074 11.0771C5.81702 10.9208 6.02899 10.833 6.25 10.833H9.16667C9.32364 10.833 9.47742 10.8773 9.6103 10.9609C9.74318 11.0445 9.84975 11.1639 9.91775 11.3053C9.98575 11.4468 10.0124 11.6046 9.99466 11.7606C9.9769 11.9165 9.91546 12.0643 9.8174 12.1869L8.89359 13.3417C9.23403 13.5702 9.51302 13.879 9.70597 14.2408C9.89892 14.6026 9.9999 15.0063 10 15.4164ZM14.1667 11.6664V17.083C14.1667 17.304 14.0789 17.516 13.9226 17.6723C13.7663 17.8286 13.5543 17.9164 13.3333 17.9164C13.1123 17.9164 12.9004 17.8286 12.7441 17.6723C12.5878 17.516 12.5 17.304 12.5 17.083V13.333L12.1666 13.5831C11.9898 13.7157 11.7676 13.7726 11.5488 13.7413C11.33 13.7101 11.1326 13.5932 11 13.4163C10.8674 13.2395 10.8104 13.0173 10.8417 12.7985C10.873 12.5797 10.9899 12.3823 11.1667 12.2497L12.8334 10.9997C12.9572 10.9068 13.1044 10.8503 13.2585 10.8364C13.4126 10.8225 13.5676 10.8518 13.706 10.921C13.8444 10.9902 13.9608 11.0966 14.0422 11.2283C14.1236 11.3599 14.1667 11.5116 14.1667 11.6664Z" fill="black"/>
</svg>
